# xmcd
#
# Track frame offsets: 
#        150
#        15120
#        24435
#        44979
#        59443
#        74666
#        94838
#        109828
#        130157
#
# Disc length: 2232 seconds
#
# Revision: 0
# Processed by: cddbd v1.5.2PL0 Copyright (c) Steve Scherf et al.
# Submitted via: ExactAudioCopyFreeDBPlugin 1.0
#
DISCID=7b08b609
DTITLE=Gundelach - Gundelach
DYEAR=2016
DGENRE=No, thanks.
TTITLE0=Spiders
TTITLE1=Cloud3
TTITLE2=Fjernsynet
TTITLE3=Space Echo
TTITLE4=Written In Red
TTITLE5=Young
TTITLE6=Alone In The Dark
TTITLE7=Fjernsynet (Formation Remix)
TTITLE8=Spiders (Finnebassen Remix)
EXTD=
EXTT0=
EXTT1=
EXTT2=
EXTT3=
EXTT4=
EXTT5=
EXTT6=
EXTT7=
EXTT8=
PLAYORDER=
